<svg xmlns="http://www.w3.org/2000/svg" viewBox="11 8.4 376.3 107.6" width="376" height="108"><path d="M24 60 A36 36 0 0 1 96 60 L96 96 Q90 104 84 97 Q78 90 72 97 Q66 104 60 97 Q54 90 48 97 Q42 104 36 97 L17 110 Q24 100 24 86 Z" fill="#FBF7EF"/><ellipse cx="49" cy="62" rx="5" ry="7" fill="#1E1B2E"/><ellipse cx="71" cy="62" rx="5" ry="7" fill="#1E1B2E"/><circle cx="40" cy="75" r="4.5" fill="#FF8A5B"/><circle cx="80" cy="75" r="4.5" fill="#FF8A5B"/><path d="M116.608 104.0V65.72800000000001V36.416H134.144V63.936H135.168Q135.936 53.952 138.496 47.488Q141.056 41.024 145.792 37.824Q150.528 34.623999999999995 157.824 34.623999999999995Q168.832 34.623999999999995 174.4 41.92Q179.96800000000002 49.216 179.96800000000002 63.68V104.0H159.232V66.368Q159.232 59.455999999999996 157.12 56.0Q155.008 52.544 150.4 52.544Q146.56 52.544 143.61599999999999 55.232Q140.672 57.92 139.00799999999998 63.936Q137.344 69.952 137.344 80.064V104.0ZM214.912 105.792Q205.184 105.792 197.632 101.888Q190.08 97.984 185.856 90.112Q181.632 82.24 181.632 70.336Q181.632 57.92 186.048 50.048Q190.464 42.176 198.07999999999998 38.4Q205.696 34.623999999999995 215.296 34.623999999999995Q225.28 34.623999999999995 232.768 38.528Q240.256 42.432 244.416 50.304Q248.57600000000002 58.176 248.57600000000002 70.208Q248.57600000000002 82.624 244.16000000000003 90.496Q239.744 98.368 232.128 102.08Q224.512 105.792 214.912 105.792ZM215.424 90.56Q219.392 90.56 222.07999999999998 88.32Q224.768 86.08 226.176 81.72800000000001Q227.584 77.376 227.584 71.36Q227.584 64.70400000000001 226.048 60.160000000000004Q224.512 55.616 221.632 53.184Q218.752 50.751999999999995 214.656 50.751999999999995Q210.816 50.751999999999995 208.128 52.992Q205.44 55.232 204.03199999999998 59.584Q202.624 63.936 202.624 70.08Q202.624 79.80799999999999 206.01600000000002 85.184Q209.40800000000002 90.56 215.424 90.56ZM282.368 105.792Q272.64 105.792 265.08799999999997 101.888Q257.536 97.984 253.312 90.112Q249.088 82.24 249.088 70.336Q249.088 57.92 253.50400000000002 50.048Q257.92 42.176 265.536 38.4Q273.152 34.623999999999995 282.752 34.623999999999995Q292.736 34.623999999999995 300.224 38.528Q307.712 42.432 311.87199999999996 50.304Q316.032 58.176 316.032 70.208Q316.032 82.624 311.616 90.496Q307.2 98.368 299.58399999999995 102.08Q291.96799999999996 105.792 282.368 105.792ZM282.88 90.56Q286.848 90.56 289.536 88.32Q292.224 86.08 293.63199999999995 81.72800000000001Q295.03999999999996 77.376 295.03999999999996 71.36Q295.03999999999996 64.70400000000001 293.50399999999996 60.160000000000004Q291.96799999999996 55.616 289.08799999999997 53.184Q286.20799999999997 50.751999999999995 282.11199999999997 50.751999999999995Q278.272 50.751999999999995 275.584 52.992Q272.896 55.232 271.488 59.584Q270.08 63.936 270.08 70.08Q270.08 79.80799999999999 273.472 85.184Q276.864 90.56 282.88 90.56ZM318.336 104.0V14.399999999999991H338.56V61.888Q342.91200000000003 59.583999999999996 346.048 56.64Q349.184 53.696 351.36 50.304Q353.536 46.912 354.88 43.391999999999996Q356.224 39.872 357.12 36.416H380.928Q379.52 41.536 376.89599999999996 46.336Q374.272 51.135999999999996 370.432 55.29599999999999Q366.592 59.455999999999996 361.536 62.78399999999999Q356.48 66.112 350.336 68.288V69.312Q358.272 68.032 363.328 68.99199999999999Q368.384 69.952 371.328 72.576Q374.272 75.2 375.87199999999996 79.168Q377.472 83.136 378.368 88.0L381.312 104.0H358.91200000000003L357.504 92.736Q356.992 88.64 356.096 85.05600000000001Q355.2 81.47200000000001 352.64 79.232Q350.08000000000004 76.992 344.576 76.992H338.56V104.0Z" fill="#FBF7EF"/></svg>